<?xml version="1.0" encoding="utf-8"?>
<!-- Generator: Adobe Illustrator 19.1.1, SVG Export Plug-In . SVG Version: 6.00 Build 0)  -->
<svg version="1.1" id="Layer_1" xmlns="http://www.w3.org/2000/svg" xmlns:xlink="http://www.w3.org/1999/xlink" x="0px" y="0px"
	 viewBox="0 0 600 300" enable-background="new 0 0 600 300" xml:space="preserve">
<g>
	<g id="Create_soundscape">
		<rect fill="#FED600" width="600" height="300"/>
		<g>
			<rect x="139" y="55.142" opacity="0.4" fill="#FFFFFF" width="2" height="160.667"/>
			<rect x="171" y="55.142" opacity="0.4" fill="#FFFFFF" width="2" height="160.667"/>
			<rect x="203" y="55.142" opacity="0.4" fill="#FFFFFF" width="2" height="160.667"/>
			<rect x="235" y="55.142" opacity="0.4" fill="#FFFFFF" width="2" height="160.667"/>
			<rect x="267" y="55.142" opacity="0.4" fill="#FFFFFF" width="2" height="160.667"/>
			<rect x="299" y="55.142" opacity="0.4" fill="#FFFFFF" width="2" height="160.667"/>
			<rect x="331" y="55.142" opacity="0.4" fill="#FFFFFF" width="2" height="160.667"/>
			<rect x="363" y="55.142" opacity="0.4" fill="#FFFFFF" width="2" height="160.667"/>
			<rect x="395" y="55.142" opacity="0.4" fill="#FFFFFF" width="2" height="160.667"/>
			<rect x="427" y="55.142" opacity="0.4" fill="#FFFFFF" width="2" height="160.667"/>
			<rect x="459" y="55.142" opacity="0.4" fill="#FFFFFF" width="2" height="160.667"/>
			<g>
				<path fill="#F9BF2C" d="M468.125,118.058c0,1.104-0.776,2-1.733,2h-12.783c-0.957,0-1.733-0.896-1.733-2v-22.25
					c0-1.104,0.776-2,1.733-2h12.783c0.957,0,1.733,0.896,1.733,2V118.058z"/>
				<path fill="#F9BF2C" d="M468.125,118.058c0,1.104-0.776,2-1.733,2h-12.783c-0.957,0-1.733-0.896-1.733-2v-22.25
					c0-1.104,0.776-2,1.733-2h12.783c0.957,0,1.733,0.896,1.733,2V118.058z"/>
				<path opacity="0.2" fill="#F9BF2C" d="M468.125,118.058c0,1.104-0.776,2-1.733,2h-12.783c-0.957,0-1.733-0.896-1.733-2v-22.25
					c0-1.104,0.776-2,1.733-2h12.783c0.957,0,1.733,0.896,1.733,2V118.058z"/>
				<g opacity="0.2">
					<path fill="#FDFDFE" d="M466.392,93.808h-12.783c-0.957,0-1.733,0.896-1.733,2v0.438c0-1.104,0.776-2,1.733-2h12.783
						c0.957,0,1.733,0.896,1.733,2v-0.438C468.125,94.704,467.349,93.808,466.392,93.808z"/>
				</g>
				<path fill="#E8AE2B" d="M466.453,119.892h-12.905c-0.676,0-1.256-0.447-1.547-1.095c0.255,0.738,0.878,1.261,1.608,1.261h12.783
					c0.729,0,1.35-0.521,1.606-1.258C467.706,119.446,467.128,119.892,466.453,119.892z"/>
				<g>
					<rect x="451.875" y="106.933" opacity="0.2" fill="#FDFDFE" width="16.25" height="0.625"/>
					<rect x="451.875" y="106.308" opacity="0.2" fill="#A37B2C" width="16.25" height="0.625"/>
				</g>
			</g>
			<g>
				<path fill="#F9BF2C" d="M148.125,169.058c0,1.104-0.776,2-1.733,2h-12.783c-0.957,0-1.733-0.896-1.733-2v-22.25
					c0-1.105,0.776-2,1.733-2h12.783c0.957,0,1.733,0.895,1.733,2V169.058z"/>
				<path fill="#F9BF2C" d="M148.125,169.058c0,1.104-0.776,2-1.733,2h-12.783c-0.957,0-1.733-0.896-1.733-2v-22.25
					c0-1.105,0.776-2,1.733-2h12.783c0.957,0,1.733,0.895,1.733,2V169.058z"/>
				<path opacity="0.2" fill="#F9BF2C" d="M148.125,169.058c0,1.104-0.776,2-1.733,2h-12.783c-0.957,0-1.733-0.896-1.733-2v-22.25
					c0-1.105,0.776-2,1.733-2h12.783c0.957,0,1.733,0.895,1.733,2V169.058z"/>
				<g opacity="0.2">
					<path fill="#FDFDFE" d="M146.392,144.808h-12.783c-0.957,0-1.733,0.895-1.733,2v0.438c0-1.105,0.776-2,1.733-2h12.783
						c0.957,0,1.733,0.895,1.733,2v-0.438C148.125,145.704,147.349,144.808,146.392,144.808z"/>
				</g>
				<path fill="#E8AE2B" d="M146.453,170.892h-12.905c-0.676,0-1.256-0.447-1.547-1.095c0.255,0.738,0.878,1.261,1.608,1.261h12.783
					c0.729,0,1.35-0.521,1.606-1.258C147.706,170.446,147.128,170.892,146.453,170.892z"/>
				<g>
					<rect x="131.875" y="157.933" opacity="0.2" fill="#FDFDFE" width="16.25" height="0.625"/>
					<rect x="131.875" y="157.308" opacity="0.2" fill="#A37B2C" width="16.25" height="0.625"/>
				</g>
			</g>
			<g>
				<path fill="#F9BF2C" d="M180.125,110.725c0,1.104-0.776,2-1.733,2h-12.783c-0.957,0-1.733-0.896-1.733-2v-22.25
					c0-1.104,0.776-2,1.733-2h12.783c0.957,0,1.733,0.896,1.733,2V110.725z"/>
				<path fill="#F9BF2C" d="M180.125,110.725c0,1.104-0.776,2-1.733,2h-12.783c-0.957,0-1.733-0.896-1.733-2v-22.25
					c0-1.104,0.776-2,1.733-2h12.783c0.957,0,1.733,0.896,1.733,2V110.725z"/>
				<path opacity="0.2" fill="#F9BF2C" d="M180.125,110.725c0,1.104-0.776,2-1.733,2h-12.783c-0.957,0-1.733-0.896-1.733-2v-22.25
					c0-1.104,0.776-2,1.733-2h12.783c0.957,0,1.733,0.896,1.733,2V110.725z"/>
				<g opacity="0.2">
					<path fill="#FDFDFE" d="M178.392,86.475h-12.783c-0.957,0-1.733,0.896-1.733,2v0.438c0-1.104,0.776-2,1.733-2h12.783
						c0.957,0,1.733,0.896,1.733,2v-0.438C180.125,87.371,179.349,86.475,178.392,86.475z"/>
				</g>
				<path fill="#E8AE2B" d="M178.453,112.559h-12.905c-0.676,0-1.256-0.447-1.547-1.095c0.255,0.738,0.878,1.261,1.608,1.261h12.783
					c0.729,0,1.35-0.521,1.606-1.258C179.706,112.113,179.128,112.559,178.453,112.559z"/>
				<g>
					<rect x="163.875" y="99.6" opacity="0.2" fill="#FDFDFE" width="16.25" height="0.625"/>
					<rect x="163.875" y="98.975" opacity="0.2" fill="#A37B2C" width="16.25" height="0.625"/>
				</g>
			</g>
			<g>
				<path fill="#F9BF2C" d="M212.125,143.059c0,1.105-0.776,2-1.733,2h-12.783c-0.957,0-1.733-0.895-1.733-2v-22.25
					c0-1.104,0.776-2,1.733-2h12.783c0.957,0,1.733,0.896,1.733,2V143.059z"/>
				<path fill="#F9BF2C" d="M212.125,143.059c0,1.105-0.776,2-1.733,2h-12.783c-0.957,0-1.733-0.895-1.733-2v-22.25
					c0-1.104,0.776-2,1.733-2h12.783c0.957,0,1.733,0.896,1.733,2V143.059z"/>
				<path opacity="0.2" fill="#F9BF2C" d="M212.125,143.059c0,1.105-0.776,2-1.733,2h-12.783c-0.957,0-1.733-0.895-1.733-2v-22.25
					c0-1.104,0.776-2,1.733-2h12.783c0.957,0,1.733,0.896,1.733,2V143.059z"/>
				<g opacity="0.2">
					<path fill="#FDFDFE" d="M210.392,118.809h-12.783c-0.957,0-1.733,0.896-1.733,2v0.438c0-1.104,0.776-2,1.733-2h12.783
						c0.957,0,1.733,0.896,1.733,2v-0.438C212.125,119.704,211.349,118.809,210.392,118.809z"/>
				</g>
				<path fill="#E8AE2B" d="M210.453,144.892h-12.905c-0.676,0-1.256-0.447-1.547-1.095c0.255,0.738,0.878,1.261,1.608,1.261h12.783
					c0.729,0,1.35-0.521,1.606-1.258C211.706,144.446,211.128,144.892,210.453,144.892z"/>
				<g>
					<rect x="195.875" y="131.934" opacity="0.2" fill="#FDFDFE" width="16.25" height="0.625"/>
					<rect x="195.875" y="131.309" opacity="0.2" fill="#A37B2C" width="16.25" height="0.625"/>
				</g>
			</g>
			<g>
				<path fill="#F9BF2C" d="M244.125,194.725c0,1.105-0.776,2-1.733,2h-12.783c-0.957,0-1.733-0.895-1.733-2v-22.25
					c0-1.104,0.776-2,1.733-2h12.783c0.957,0,1.733,0.896,1.733,2V194.725z"/>
				<path fill="#F9BF2C" d="M244.125,194.725c0,1.105-0.776,2-1.733,2h-12.783c-0.957,0-1.733-0.895-1.733-2v-22.25
					c0-1.104,0.776-2,1.733-2h12.783c0.957,0,1.733,0.896,1.733,2V194.725z"/>
				<path opacity="0.2" fill="#F9BF2C" d="M244.125,194.725c0,1.105-0.776,2-1.733,2h-12.783c-0.957,0-1.733-0.895-1.733-2v-22.25
					c0-1.104,0.776-2,1.733-2h12.783c0.957,0,1.733,0.896,1.733,2V194.725z"/>
				<g opacity="0.2">
					<path fill="#FDFDFE" d="M242.392,170.475h-12.783c-0.957,0-1.733,0.896-1.733,2v0.438c0-1.104,0.776-2,1.733-2h12.783
						c0.957,0,1.733,0.896,1.733,2v-0.438C244.125,171.371,243.349,170.475,242.392,170.475z"/>
				</g>
				<path fill="#E8AE2B" d="M242.453,196.559h-12.905c-0.676,0-1.256-0.447-1.547-1.095c0.255,0.738,0.878,1.261,1.608,1.261h12.783
					c0.729,0,1.35-0.521,1.606-1.258C243.706,196.113,243.128,196.559,242.453,196.559z"/>
				<g>
					<rect x="227.875" y="183.6" opacity="0.2" fill="#FDFDFE" width="16.25" height="0.625"/>
					<rect x="227.875" y="182.975" opacity="0.2" fill="#A37B2C" width="16.25" height="0.625"/>
				</g>
			</g>
			<g>
				<path fill="#F9BF2C" d="M276.125,163.725c0,1.105-0.776,2-1.733,2h-12.783c-0.957,0-1.733-0.895-1.733-2v-22.25
					c0-1.104,0.776-2,1.733-2h12.783c0.957,0,1.733,0.896,1.733,2V163.725z"/>
				<path fill="#F9BF2C" d="M276.125,163.725c0,1.105-0.776,2-1.733,2h-12.783c-0.957,0-1.733-0.895-1.733-2v-22.25
					c0-1.104,0.776-2,1.733-2h12.783c0.957,0,1.733,0.896,1.733,2V163.725z"/>
				<path opacity="0.2" fill="#F9BF2C" d="M276.125,163.725c0,1.105-0.776,2-1.733,2h-12.783c-0.957,0-1.733-0.895-1.733-2v-22.25
					c0-1.104,0.776-2,1.733-2h12.783c0.957,0,1.733,0.896,1.733,2V163.725z"/>
				<g opacity="0.2">
					<path fill="#FDFDFE" d="M274.392,139.475h-12.783c-0.957,0-1.733,0.896-1.733,2v0.438c0-1.104,0.776-2,1.733-2h12.783
						c0.957,0,1.733,0.896,1.733,2v-0.438C276.125,140.371,275.349,139.475,274.392,139.475z"/>
				</g>
				<path fill="#E8AE2B" d="M274.453,165.559h-12.905c-0.676,0-1.256-0.447-1.547-1.095c0.255,0.738,0.878,1.261,1.608,1.261h12.783
					c0.729,0,1.35-0.521,1.606-1.258C275.706,165.113,275.128,165.559,274.453,165.559z"/>
				<g>
					<rect x="259.875" y="152.6" opacity="0.2" fill="#FDFDFE" width="16.25" height="0.625"/>
					<rect x="259.875" y="151.975" opacity="0.2" fill="#A37B2C" width="16.25" height="0.625"/>
				</g>
			</g>
			<g>
				<path fill="#F9BF2C" d="M308.125,166.725c0,1.105-0.776,2-1.733,2h-12.783c-0.957,0-1.733-0.895-1.733-2v-22.25
					c0-1.104,0.776-2,1.733-2h12.783c0.957,0,1.733,0.896,1.733,2V166.725z"/>
				<path fill="#F9BF2C" d="M308.125,166.725c0,1.105-0.776,2-1.733,2h-12.783c-0.957,0-1.733-0.895-1.733-2v-22.25
					c0-1.104,0.776-2,1.733-2h12.783c0.957,0,1.733,0.896,1.733,2V166.725z"/>
				<path opacity="0.2" fill="#F9BF2C" d="M308.125,166.725c0,1.105-0.776,2-1.733,2h-12.783c-0.957,0-1.733-0.895-1.733-2v-22.25
					c0-1.104,0.776-2,1.733-2h12.783c0.957,0,1.733,0.896,1.733,2V166.725z"/>
				<g opacity="0.2">
					<path fill="#FDFDFE" d="M306.392,142.475h-12.783c-0.957,0-1.733,0.896-1.733,2v0.438c0-1.104,0.776-2,1.733-2h12.783
						c0.957,0,1.733,0.896,1.733,2v-0.438C308.125,143.371,307.349,142.475,306.392,142.475z"/>
				</g>
				<path fill="#E8AE2B" d="M306.453,168.559h-12.905c-0.676,0-1.256-0.447-1.547-1.095c0.255,0.738,0.878,1.261,1.608,1.261h12.783
					c0.729,0,1.35-0.521,1.606-1.258C307.706,168.113,307.128,168.559,306.453,168.559z"/>
				<g>
					<rect x="291.875" y="155.6" opacity="0.2" fill="#FDFDFE" width="16.25" height="0.625"/>
					<rect x="291.875" y="154.975" opacity="0.2" fill="#A37B2C" width="16.25" height="0.625"/>
				</g>
			</g>
			<g>
				<path fill="#F9BF2C" d="M340.125,190.933c0,1.104-0.776,2-1.733,2h-12.783c-0.957,0-1.733-0.896-1.733-2v-22.25
					c0-1.105,0.776-2,1.733-2h12.783c0.957,0,1.733,0.895,1.733,2V190.933z"/>
				<path fill="#F9BF2C" d="M340.125,190.933c0,1.104-0.776,2-1.733,2h-12.783c-0.957,0-1.733-0.896-1.733-2v-22.25
					c0-1.105,0.776-2,1.733-2h12.783c0.957,0,1.733,0.895,1.733,2V190.933z"/>
				<path opacity="0.2" fill="#F9BF2C" d="M340.125,190.933c0,1.104-0.776,2-1.733,2h-12.783c-0.957,0-1.733-0.896-1.733-2v-22.25
					c0-1.105,0.776-2,1.733-2h12.783c0.957,0,1.733,0.895,1.733,2V190.933z"/>
				<g opacity="0.2">
					<path fill="#FDFDFE" d="M338.392,166.683h-12.783c-0.957,0-1.733,0.895-1.733,2v0.438c0-1.105,0.776-2,1.733-2h12.783
						c0.957,0,1.733,0.895,1.733,2v-0.438C340.125,167.579,339.349,166.683,338.392,166.683z"/>
				</g>
				<path fill="#E8AE2B" d="M338.453,192.767h-12.905c-0.676,0-1.256-0.447-1.547-1.095c0.255,0.738,0.878,1.261,1.608,1.261h12.783
					c0.729,0,1.35-0.521,1.606-1.258C339.706,192.321,339.128,192.767,338.453,192.767z"/>
				<g>
					<rect x="323.875" y="179.808" opacity="0.2" fill="#FDFDFE" width="16.25" height="0.625"/>
					<rect x="323.875" y="179.183" opacity="0.2" fill="#A37B2C" width="16.25" height="0.625"/>
				</g>
			</g>
			<g>
				<path fill="#F9BF2C" d="M372.125,161.725c0,1.105-0.776,2-1.733,2h-12.783c-0.957,0-1.733-0.895-1.733-2v-22.25
					c0-1.104,0.776-2,1.733-2h12.783c0.957,0,1.733,0.896,1.733,2V161.725z"/>
				<path fill="#F9BF2C" d="M372.125,161.725c0,1.105-0.776,2-1.733,2h-12.783c-0.957,0-1.733-0.895-1.733-2v-22.25
					c0-1.104,0.776-2,1.733-2h12.783c0.957,0,1.733,0.896,1.733,2V161.725z"/>
				<path opacity="0.2" fill="#F9BF2C" d="M372.125,161.725c0,1.105-0.776,2-1.733,2h-12.783c-0.957,0-1.733-0.895-1.733-2v-22.25
					c0-1.104,0.776-2,1.733-2h12.783c0.957,0,1.733,0.896,1.733,2V161.725z"/>
				<g opacity="0.2">
					<path fill="#FDFDFE" d="M370.392,137.475h-12.783c-0.957,0-1.733,0.896-1.733,2v0.438c0-1.104,0.776-2,1.733-2h12.783
						c0.957,0,1.733,0.896,1.733,2v-0.438C372.125,138.37,371.349,137.475,370.392,137.475z"/>
				</g>
				<path fill="#E8AE2B" d="M370.453,163.558h-12.905c-0.676,0-1.256-0.447-1.547-1.095c0.255,0.738,0.878,1.261,1.608,1.261h12.783
					c0.729,0,1.35-0.521,1.606-1.258C371.706,163.112,371.128,163.558,370.453,163.558z"/>
				<g>
					<rect x="355.875" y="150.6" opacity="0.2" fill="#FDFDFE" width="16.25" height="0.625"/>
					<rect x="355.875" y="149.975" opacity="0.2" fill="#A37B2C" width="16.25" height="0.625"/>
				</g>
			</g>
			<g>
				<path fill="#F9BF2C" d="M404.125,137.725c0,1.105-0.776,2-1.733,2h-12.783c-0.957,0-1.733-0.895-1.733-2v-22.25
					c0-1.104,0.776-2,1.733-2h12.783c0.957,0,1.733,0.896,1.733,2V137.725z"/>
				<path fill="#F9BF2C" d="M404.125,137.725c0,1.105-0.776,2-1.733,2h-12.783c-0.957,0-1.733-0.895-1.733-2v-22.25
					c0-1.104,0.776-2,1.733-2h12.783c0.957,0,1.733,0.896,1.733,2V137.725z"/>
				<path opacity="0.2" fill="#F9BF2C" d="M404.125,137.725c0,1.105-0.776,2-1.733,2h-12.783c-0.957,0-1.733-0.895-1.733-2v-22.25
					c0-1.104,0.776-2,1.733-2h12.783c0.957,0,1.733,0.896,1.733,2V137.725z"/>
				<g opacity="0.2">
					<path fill="#FDFDFE" d="M402.392,113.475h-12.783c-0.957,0-1.733,0.896-1.733,2v0.438c0-1.104,0.776-2,1.733-2h12.783
						c0.957,0,1.733,0.896,1.733,2v-0.438C404.125,114.37,403.349,113.475,402.392,113.475z"/>
				</g>
				<path fill="#E8AE2B" d="M402.453,139.558h-12.905c-0.676,0-1.256-0.447-1.547-1.095c0.255,0.738,0.878,1.261,1.608,1.261h12.783
					c0.729,0,1.35-0.521,1.606-1.258C403.706,139.112,403.128,139.558,402.453,139.558z"/>
				<g>
					<rect x="387.875" y="126.6" opacity="0.2" fill="#FDFDFE" width="16.25" height="0.625"/>
					<rect x="387.875" y="125.975" opacity="0.2" fill="#A37B2C" width="16.25" height="0.625"/>
				</g>
			</g>
			<g>
				<path fill="#F9BF2C" d="M436.124,158.725c0,1.105-0.775,2-1.732,2h-12.783c-0.957,0-1.733-0.895-1.733-2v-22.25
					c0-1.104,0.776-2,1.733-2h12.783c0.957,0,1.732,0.896,1.732,2V158.725z"/>
				<path fill="#F9BF2C" d="M436.124,158.725c0,1.105-0.775,2-1.732,2h-12.783c-0.957,0-1.733-0.895-1.733-2v-22.25
					c0-1.104,0.776-2,1.733-2h12.783c0.957,0,1.732,0.896,1.732,2V158.725z"/>
				<path opacity="0.2" fill="#F9BF2C" d="M436.124,158.725c0,1.105-0.775,2-1.732,2h-12.783c-0.957,0-1.733-0.895-1.733-2v-22.25
					c0-1.104,0.776-2,1.733-2h12.783c0.957,0,1.732,0.896,1.732,2V158.725z"/>
				<g opacity="0.2">
					<path fill="#FDFDFE" d="M434.392,134.475h-12.783c-0.957,0-1.733,0.896-1.733,2v0.438c0-1.104,0.776-2,1.733-2h12.783
						c0.957,0,1.732,0.896,1.732,2v-0.438C436.124,135.37,435.349,134.475,434.392,134.475z"/>
				</g>
				<path fill="#E8AE2B" d="M434.452,160.558h-12.904c-0.676,0-1.256-0.447-1.547-1.095c0.255,0.738,0.878,1.261,1.608,1.261h12.782
					c0.73,0,1.352-0.521,1.607-1.258C435.706,160.112,435.128,160.558,434.452,160.558z"/>
				<g>
					<rect x="419.875" y="147.6" opacity="0.2" fill="#FDFDFE" width="16.249" height="0.625"/>
					<rect x="419.875" y="146.975" opacity="0.2" fill="#A37B2C" width="16.249" height="0.625"/>
				</g>
			</g>
		</g>
	</g>
</g>
</svg>
