<?xml version="1.0" encoding="utf-8"?>
<!-- Generator: Adobe Illustrator 19.1.1, SVG Export Plug-In . SVG Version: 6.00 Build 0)  -->
<svg version="1.1" id="Layer_1" xmlns="http://www.w3.org/2000/svg" xmlns:xlink="http://www.w3.org/1999/xlink" x="0px" y="0px"
	 viewBox="0 0 599.778 227.004" enable-background="new 0 0 599.778 227.004" xml:space="preserve">
<g>
	<g id="Museum_tour">
		<rect fill="#FCB64E" width="599.778" height="227.004"/>
		<path opacity="0.3" fill="#B7926A" d="M462.306,147.786c0,1.502-0.816,2.721-1.824,2.721H288.129
			c-1.007,0-1.824-1.219-1.824-2.721V36.228c0-1.502,0.816-2.721,1.824-2.721h172.352c1.008,0,1.824,1.219,1.824,2.721V147.786z"/>
		<g>
			<path fill="#BB7D2B" d="M177.229,99.309c-1.427-9.064-23.008-14.826-49.423-14.826S79.81,90.244,78.383,99.309h-0.077v127.695h99
				V99.309H177.229z"/>
			<rect x="83.806" y="108.83" fill="#F9F9FA" width="88" height="117.174"/>
			<rect x="83.806" y="109.83" fill="#EAEAEA" width="88" height="117.174"/>
			<circle fill="#C69354" cx="127.806" cy="99.667" r="2.271"/>
			<path opacity="0.2" fill="#F9F9FA" d="M177.229,99.309c-1.427-9.064-23.008-14.826-49.423-14.826S79.81,90.244,78.383,99.309
				h-0.077v1.667h0.077c1.427-9.064,23.008-14.826,49.423-14.826s47.996,5.762,49.423,14.826h0.077v-1.667H177.229z"/>
		</g>
		<path fill="#EAEAEA" d="M462.306,145.119c0,1.502-0.816,2.721-1.824,2.721H288.129c-1.007,0-1.824-1.219-1.824-2.721V33.561
			c0-1.502,0.816-2.721,1.824-2.721h172.352c1.008,0,1.824,1.219,1.824,2.721V145.119z"/>
		<path fill="#C69354" d="M426.345,121.997c0,0.879-0.482,1.593-1.079,1.593H323.345c-0.596,0-1.079-0.714-1.079-1.593V56.683
			c0-0.879,0.483-1.593,1.079-1.593h101.922c0.596,0,1.079,0.714,1.079,1.593V121.997z"/>
		<rect x="481.306" y="104.173" opacity="0.3" fill="#B7926A" width="22" height="25"/>
		<rect x="481.306" y="102.84" fill="#F2EFEB" width="22" height="25"/>

		<g opacity="0.6">
			<path fill="#EDEBEC" d="M196.307,109.146v0.047l3.246,3.245c5.301-4.206,8.703-10.699,8.703-17.992
				c0-6.709-2.879-12.739-7.465-16.938l-3.254,3.255c3.755,3.364,6.124,8.243,6.124,13.683
				C203.659,100.458,200.77,105.793,196.307,109.146z"/>
			<path fill="#EDEBEC" d="M208.562,113.62v0.063l4.27,4.27c6.974-5.534,11.45-14.077,11.45-23.674
				c0-8.827-3.788-16.762-9.823-22.284l-4.282,4.282c4.941,4.426,8.058,10.846,8.058,18.002
				C218.236,102.19,214.435,109.209,208.562,113.62z"/>
			<path fill="#EDEBEC" d="M223.727,118.965v0.08l4.87,5.494c7.954-7.121,13.059-18.112,13.059-30.46
				c0-11.356-4.32-21.565-11.203-28.673l-4.883,5.511c5.635,5.694,9.19,13.955,9.19,23.162
				C234.76,104.259,230.425,113.29,223.727,118.965z"/>
		</g>
	</g>
</g>
</svg>
