<?xml version="1.0" encoding="utf-8"?>
<!-- Generator: Adobe Illustrator 19.1.1, SVG Export Plug-In . SVG Version: 6.00 Build 0)  -->
<svg version="1.1" id="Layer_1" xmlns="http://www.w3.org/2000/svg" xmlns:xlink="http://www.w3.org/1999/xlink" x="0px" y="0px"
	 viewBox="0 0 291.311 287.781" enable-background="new 0 0 291.311 287.781" xml:space="preserve">
<g>
	<g id="Sound_library">
		<rect fill="#FCB316" width="291.311" height="287.781"/>
		<g>
			<polygon fill="#FFD181" points="146.166,199.058 28.832,221.724 28.832,189.058 146.166,169.391 			"/>
			<polygon fill="#E2BC7F" points="28.832,222.057 0.166,210.057 0.166,177.391 28.832,189.391 			"/>
			<path fill="#BB873F" d="M147.868,198.601c-0.117-0.634-0.733-1.05-1.375-0.932l-117.29,22.74
				c-0.642,0.119-1.067,0.729-0.95,1.363l0,0c0.118,0.634,0.732,1.051,1.375,0.932l117.29-22.74
				C147.56,199.844,147.986,199.235,147.868,198.601L147.868,198.601z"/>
			<path fill="#BB873F" d="M71.498,152.141L0,159.883v17.585c14.029,5.851,27.199,11.38,27.253,11.675
				c0.118,0.634,0.732,1.051,1.375,0.932l117.29-19.74c0.642-0.12,1.068-0.729,0.95-1.363
				C146.751,168.338,72.14,152.022,71.498,152.141z"/>
		</g>
		<rect x="84.641" y="158.642" fill="#D3B98C" width="70.833" height="10.5"/>
		<g>
			<g>
				<path fill="#EEE7DC" d="M162.693,168.9h-0.242l-0.132-2.245c-0.374-2.245-1.632-16.121-1.632-16.121s0.612-13.876,0.204-14.488
					l-1.044-1.883c-6.391,0.102-23.852,2.699-23.852,2.699c4.25-2.833,16.463-3.805,20.407-4.898l-4.104-11.417
					c-11.813-2.051-32.832,2.234-32.832,2.234c17.55-5.714,28.285-4.547,28.285-4.547l4.977-4.432
					c-27.629-1.409-54.622,1.565-68.106,18.32c4.352-22.648,22.711-35.599,22.711-35.599c-2.358-4.383-2.088-12.884-2.088-12.884
					c-37.271,26.501-41.147,63.833-41.147,63.833s0.054,0.044,0.15,0.118c-0.053,0.054-0.083,0.086-0.083,0.086
					C42.762,120.505,6.26,124.563,0,125.488v2.496c22.771-2.054,34.643,5.171,34.643,5.171c-3.469-1.531-10.305-3.367-20.509-3.775
					c-6.195-0.248-11.17,0.406-14.134,0.959v5.082c9.296-0.997,27.243-1.727,43.417,4.57c0,0-24.409-7.336-43.417-0.478v5.857
					c13.851-2.912,26.485-1.13,26.485-1.13C15.484,144.134,6.702,145.528,0,147.29v16.985c7.659,0.454,25.122,1.795,43.281,5.304
					L0,168.451v2.592h49.26c0.357,0,0.646-0.503,0.646-1.123c0.365-0.228,0.874-8.885,9.508-11.316
					c7.56-2.129,15.393-1.129,20.8,11.466c0.026,0.597,0.514,1.074,1.118,1.074h81.361c0.62,0,1.123-0.503,1.123-1.123
					C163.816,169.403,163.313,168.9,162.693,168.9z M84.155,168.152c11.835-6.734,19.938-7.551,34.426-6.53
					c15.098,1.063,35.099,6.122,35.099,6.122L84.155,168.152z"/>
			</g>
			<path fill="#A36928" d="M164.838,170.396H82.281c-0.008-0.034-0.014-0.068-0.028-0.102c-3.231-7.958-10.945-17.152-23.678-11.942
				c-7.604,3.111-9.788,11.942-9.788,11.942H0.294c-0.11,0-0.208,0.06-0.299,0.144v1.957c0.091,0.084,0.189,0.144,0.299,0.144
				h49.479c0.357,0,0.646-0.502,0.646-1.122c0.366-0.228,1.059-8.305,9.508-11.316c7.389-2.633,14.883-2.652,20.8,11.466
				c0.026,0.597,0.514,1.074,1.118,1.074h82.993c0.62,0,1.122-0.502,1.122-1.123C165.961,170.899,165.458,170.396,164.838,170.396z"
				/>
		</g>
		<g id="NOTES">
			<path fill="#785F3A" d="M173.356,67.539l-16.055,5.563l2.281,19.275c-1.007-0.502-2.274-0.731-3.617-0.572
				c-2.931,0.347-5.097,2.397-4.839,4.579c0.258,2.183,2.843,3.67,5.773,3.324c2.931-0.347,5.097-2.397,4.839-4.579
				c-0.004-0.038-0.015-0.075-0.021-0.112l0.008-0.001l-1.987-16.797l13.622-4.843l1.703,14.395
				c-1.007-0.501-2.274-0.731-3.617-0.572c-2.931,0.347-5.097,2.397-4.839,4.579c0.259,2.182,2.843,3.67,5.774,3.324
				c2.93-0.347,5.097-2.397,4.839-4.579c-0.003-0.029-0.012-0.056-0.016-0.084l0.006-0.001l-2.093-17.686l-0.525-4.441l-0.137-1.157
				L173.356,67.539z"/>
			<path opacity="0.7" fill="#785F3A" d="M200.282,122.079l-11.926-1.102l-4.146,13.037c-0.5-0.615-1.247-1.131-2.155-1.42
				c-1.983-0.631-3.97,0.055-4.439,1.531c-0.469,1.476,0.757,3.184,2.739,3.814c1.982,0.63,3.97-0.055,4.439-1.531
				c0.008-0.026,0.012-0.052,0.019-0.078l0.005,0.001l3.613-11.361l10.154,0.855l-3.097,9.736c-0.5-0.614-1.246-1.131-2.155-1.42
				c-1.982-0.63-3.969,0.056-4.439,1.531c-0.469,1.476,0.757,3.184,2.739,3.814c1.982,0.63,3.97-0.055,4.439-1.531
				c0.006-0.02,0.009-0.039,0.014-0.059l0.004,0.001l3.805-11.963l0.955-3.004l0.249-0.783L200.282,122.079z"/>
			<path fill="#785F3A" d="M208.445,71.308v1.301v3.384v2.993v4.686v9.863c-1.026-0.579-2.3-0.927-3.687-0.927
				c-3.379,0-6.117,2.04-6.117,4.556c0,2.515,2.738,4.555,6.117,4.555c3.339,0,6.048-1.993,6.11-4.469h0.006V84.772l13.535,6.129
				v10.704c-1.026-0.58-2.301-0.927-3.687-0.927c-3.378,0-6.117,2.04-6.117,4.555c0,2.516,2.739,4.555,6.117,4.555
				c3.378,0,6.116-2.04,6.116-4.555c0-0.029-0.005-0.058-0.006-0.088h0.006V92.001v-4.685v-2.994v-3.817v-0.867L208.445,71.308z
				 M224.41,86.216l-13.535-6.129v-2.994l13.535,6.129V86.216z"/>
			<path fill="#A87E48" d="M239.588,31.063l-0.204,0.703l-0.529,1.826l-0.468,1.616l-0.732,2.529l-1.542,5.324
				c-0.463-0.473-1.097-0.859-1.846-1.076c-1.824-0.528-3.621,0.144-4.014,1.502c-0.393,1.358,0.767,2.887,2.59,3.416
				c1.803,0.522,3.577-0.13,3.997-1.457l0.003,0.001l1.951-6.736l6.348,5.424l-1.673,5.778c-0.463-0.473-1.097-0.859-1.846-1.076
				c-1.823-0.528-3.621,0.145-4.014,1.502c-0.393,1.358,0.766,2.887,2.589,3.415c1.824,0.528,3.621-0.144,4.014-1.503
				c0.005-0.016,0.006-0.032,0.01-0.048l0.003,0.001l2.055-7.095l0.732-2.529l0.468-1.616l0.597-2.061l0.136-0.468L239.588,31.063z
				 M245.875,41.606l-6.348-5.424l0.468-1.616l6.348,5.424L245.875,41.606z"/>
			<path fill="#85653A" d="M258.655,67.237l-3.727-2.954l0.564-2.371l3.727,2.954l0.49-2.062l-5.444-4.284l-0.245,1.031
				l-0.638,2.681l-0.564,2.371l-0.883,3.711l-1.859,7.813c-0.704-0.652-1.648-1.167-2.746-1.429
				c-2.676-0.637-5.23,0.462-5.704,2.455c-0.474,1.992,1.311,4.124,3.986,4.761c2.645,0.629,5.167-0.439,5.683-2.388l0.004,0.001
				l3.137-13.183l3.727,2.955L258.655,67.237z"/>
			<path opacity="0.7" fill="#785F3A" d="M208.475,39.997l-8.5-6.356v24.342c-1.035-0.678-2.389-1.092-3.875-1.092
				c-3.245,0-5.875,1.959-5.875,4.375c0,2.416,2.63,4.375,5.875,4.375c3.245,0,5.875-1.959,5.875-4.375
				c0-0.042-0.007-0.083-0.008-0.125h0.008V38.543l6.5,4.748V39.997z"/>
			<path fill="#785F3A" d="M128.616,66.933l-4.692,1.001l8.284,7.244c-0.539,0.15-1.083,0.488-1.525,0.994
				c-0.965,1.104-1.082,2.582-0.259,3.302c0.822,0.718,2.271,0.406,3.237-0.698c0.966-1.104,1.082-2.582,0.26-3.301
				c-0.015-0.012-0.03-0.022-0.045-0.034l0.002-0.003l-7.69-6.725l3.55-0.799L128.616,66.933z"/>
		</g>
	</g>
</g>
</svg>
